<?xml version="1.0" encoding="utf-8"?>
<!-- Generator: Adobe Illustrator 16.0.4, SVG Export Plug-In . SVG Version: 6.00 Build 0)  -->
<!DOCTYPE svg PUBLIC "-//W3C//DTD SVG 1.1//EN" "http://www.w3.org/Graphics/SVG/1.1/DTD/svg11.dtd">
<svg version="1.1" id="Layer_1" xmlns="http://www.w3.org/2000/svg" xmlns:xlink="http://www.w3.org/1999/xlink" x="0px" y="0px"
	 width="491.775px" height="58.458px" viewBox="0 0 491.775 58.458" enable-background="new 0 0 491.775 58.458"
	 xml:space="preserve">
<g>
	<g>
		<g>
			<g>
				<path fill="#FFFFFF" d="M478.048,0c7.626,0,13.728,6.216,13.728,13.956c0,7.741-6.102,13.994-13.728,13.994
					c-7.514,0-13.613-6.253-13.613-13.994C464.435,6.216,470.534,0,478.048,0z M478.048,24.862c5.871,0,10.371-4.806,10.371-10.906
					c0-6.063-4.5-10.868-10.371-10.868c-5.76,0-10.22,4.805-10.22,10.868C467.828,20.057,472.288,24.862,478.048,24.862z
					 M473.28,6.902h5.796c2.745,0,4.575,1.754,4.575,4.423c0,2.173-1.485,3.354-2.479,3.624v0.076c0,0,0.153,0.15,0.497,0.801
					l2.631,5.031h-3.584l-2.365-5.148h-1.83v5.148h-3.241V6.902z M478.315,13.423c1.257,0,2.021-0.801,2.021-2.098
					c0-1.335-0.764-2.06-1.984-2.06h-1.83v4.157H478.315z"/>
			</g>
		</g>
		<path fill="#FFFFFF" d="M0,1.556h34.3c3.877,0,14.111,0.063,17.354,0.612c3.24,0.553,6.099,1.971,8.416,3.446
			c2.314,1.478,4.126,3.598,5.427,6.171c1.303,2.58,1.954,5.973,1.954,10.025c0,4.688-1.246,8.41-3.734,11.16
			c-2.49,2.748-6.951,4.441-12.914,5.08l10.81,3.473l5.03,16.936H38.46l-6.689-16.076h-5.26v16.076H0.079L0,1.556z M32.78,28.324
			c1.853,0,3.24-0.289,4.17-0.871c0.925-0.576,1.389-1.851,1.389-3.818v-1.912c0-2.025-0.493-3.343-1.477-3.951
			c-0.985-0.607-2.432-0.912-4.342-0.912h-6.705v11.465H32.78z"/>
		<path fill="#FFFFFF" d="M134.535,58.458h-23.888l-1.822-5.908H88.04l-1.652,5.908H63.859L80.222,1.924h39.111L134.535,58.458z
			 M105.56,40.082l-4.791-12.678l-2.432-8.825l-2.396,8.825l-4.393,12.678H105.56z"/>
		<path fill="#FFFFFF" d="M124.568,1.924h25.721l3.734,20.494l0.956,19.33l1.823-18.287l5.296-21.537h20.236l5.209,21.537
			l1.911,18.287l1.042-19.33l4.168-20.494h21.293l-15.111,56.535h-23.375l-4.517-20.67l-1.737-16.376l-1.563,16.376l-4.95,20.67
			h-24.852L124.568,1.924z"/>
		<path fill="#FFFFFF" d="M239.278,1.924h33.415l4.689,26.746l1.651,15.335l1.823-15.335l5.384-26.746h33.275v56.535h-22.231V40.046
			l1.911-26.796l-3.388,17.417l-5.298,27.791h-24.382l-5.211-27.791l-3.039-17.417l1.736,27.058v18.15h-20.337V1.924z"/>
		<path fill="#FFFFFF" d="M324.834,1.924h23.274v56.535h-23.274V1.924z"/>
		<path fill="#FFFFFF" d="M353.426,1.924h22.751v41.685h18.706v14.85h-41.457V1.924z"/>
		<path fill="#FFFFFF" d="M400.201,1.924h23.674v10.594l0.044,9.51l12.67-20.104h25.996l-19.4,25.618l7.19,4.428l11.984,26.488
			h-26.154l-9.379-19.439l-2.951,4.518v14.922h-23.674V1.924z"/>
	</g>
</g>
</svg>
